<svg width="489" height="119" viewBox="0 0 489 119" fill="none" xmlns="http://www.w3.org/2000/svg">
<rect width="489" height="119" fill="white"/>
<path d="M80.45 56.875C86.1311 56.875 90.75 52.2785 90.75 46.625C90.75 40.9715 86.1311 36.375 80.45 36.375C74.7689 36.375 70.15 40.9715 70.15 46.625C70.15 52.2785 74.7689 56.875 80.45 56.875ZM152.55 56.875C158.231 56.875 162.85 52.2785 162.85 46.625C162.85 40.9715 158.231 36.375 152.55 36.375C146.869 36.375 142.25 40.9715 142.25 46.625C142.25 52.2785 146.869 56.875 152.55 56.875ZM157.7 62H147.4C144.568 62 142.009 63.1371 140.142 64.9789C146.628 68.5184 151.23 74.9086 152.228 82.5H162.85C165.699 82.5 168 80.2098 168 77.375V72.25C168 66.5965 163.381 62 157.7 62ZM116.5 62C126.462 62 134.525 53.9762 134.525 44.0625C134.525 34.1488 126.462 26.125 116.5 26.125C106.538 26.125 98.475 34.1488 98.475 44.0625C98.475 53.9762 106.538 62 116.5 62ZM128.86 67.125H127.524C124.177 68.7266 120.459 69.6875 116.5 69.6875C112.541 69.6875 108.839 68.7266 105.476 67.125H104.14C93.9044 67.125 85.6 75.3891 85.6 85.575V90.1875C85.6 94.4316 89.0602 97.875 93.325 97.875H139.675C143.94 97.875 147.4 94.4316 147.4 90.1875V85.575C147.4 75.3891 139.096 67.125 128.86 67.125ZM92.8583 64.9789C90.9914 63.1371 88.4325 62 85.6 62H75.3C69.6189 62 65 66.5965 65 72.25V77.375C65 80.2098 67.3014 82.5 70.15 82.5H80.7558C81.7697 74.9086 86.3725 68.5184 92.8583 64.9789Z" fill="black"/>
<g clip-path="url(#clip0)">
<path d="M234.25 75.5C233.914 75.5 233.577 75.5492 233.257 75.6533C231.434 76.2453 229.518 76.625 227.5 76.625C225.482 76.625 223.565 76.2453 221.741 75.6533C221.42 75.5492 221.086 75.5 220.75 75.5C212.022 75.5 204.953 82.5987 205 91.3372C205.019 95.03 208.055 98 211.75 98H243.25C246.944 98 249.98 95.03 250 91.3372C250.046 82.5987 242.977 75.5 234.25 75.5ZM227.5 71C234.956 71 241 64.9559 241 57.5C241 50.0441 234.956 44 227.5 44C220.044 44 214 50.0441 214 57.5C214 64.9559 220.044 71 227.5 71ZM288.25 26H234.25C230.527 26 227.5 29.1289 227.5 32.9736V39.5C230.793 39.5 233.842 40.4534 236.5 42.0031V35H286V75.5H277V66.5H259V75.5H248.278C250.964 77.847 252.936 80.9464 253.86 84.5H288.25C291.972 84.5 295 81.3711 295 77.5264V32.9736C295 29.1289 291.972 26 288.25 26Z" fill="black"/>
</g>
<g clip-path="url(#clip1)">
<path d="M401.388 46.2001V54.6563H356.612V46.2001C356.612 42.2745 351.866 40.3086 349.09 43.0843L333.29 58.8842C331.57 60.6051 331.57 63.3948 333.29 65.1156L349.09 80.9155C351.866 83.6912 356.612 81.7253 356.612 77.7997V69.3438H401.388V77.7999C401.388 81.7255 406.134 83.6914 408.91 80.9157L424.71 65.1158C426.43 63.395 426.43 60.6052 424.71 58.8844L408.91 43.0845C406.134 40.3086 401.388 42.2745 401.388 46.2001V46.2001Z" fill="black"/>
</g>
<defs>
<clipPath id="clip0">
<rect x="205" y="26" width="90" height="72" fill="white"/>
</clipPath>
<clipPath id="clip1">
<rect x="332" y="15" width="94" height="94" fill="white"/>
</clipPath>
</defs>
</svg>
